# xmcd CD database file
#
# Track frame offsets:
#	150
#	15540
#	31206
#	48474
#	62006
#	75145
#	90632
#	105625
#	123868
#	144194
#	162830
#	178271
#	199984
#	215527
#	237553
#
# Disc length: 3546 seconds
#
# Revision: 0
# Processed by: cddbd v1.5.2PL0 Copyright (c) Steve Scherf et al.
# Submitted via: CDex 1.79
#
DISCID=c10dd80f
DTITLE=Billie Holiday - Lady In Satin: The Centennial Edition
DYEAR=2015
DGENRE=Jazz
TTITLE0=I'm A Fool to Want You
TTITLE1=For Heaven's Sake
TTITLE2=You Don't Know What Love Is
TTITLE3=I Get Along Without You Very Well
TTITLE4=For All We Know
TTITLE5=Violets for Your Furs
TTITLE6=You've Changed
TTITLE7=It's Easy to Remember
TTITLE8=But Beautiful
TTITLE9=Glad to Be Unhappy
TTITLE10=I'll Be Around
TTITLE11=The End of a Love Affair [(Stereo master-take 4 with vocal overdub take 8)]
TTITLE12=I'm A Fool to Want You [(Mono Master-take 3)]
TTITLE13=The End of a Love Affair [(Mono master-take 4 with vocal overdub take 8)]
TTITLE14=Fine and Mellow
EXTD=YEAR: 2015
EXTT0=
EXTT1=
EXTT2=
EXTT3=
EXTT4=
EXTT5=
EXTT6=
EXTT7=
EXTT8=
EXTT9=
EXTT10=
EXTT11=
EXTT12=
EXTT13=
EXTT14=
PLAYORDER=
